<svg fill="none" height="150" viewBox="0 0 150 150" width="150" xmlns="http://www.w3.org/2000/svg"><path clip-rule="evenodd" d="m120.683 40.2394c-.534-.1558-1.099-.2394-1.683-.2394h-88c-.6136 0-1.2057.0921-1.7631.2632l43.2219 35.802c.9108.7544 2.2256.7674 3.1512.0311zm-95.2028 3.4047c-.3091.7232-.4802 1.5196-.4802 2.3559v58c0 .584.0835 1.149.2393 1.683l29.844-37.5179zm5.5198 66.3559c-.8557 0-1.6696-.179-2.4062-.502l30.3408-38.1427 10.3347 8.5605c2.7323 2.2633 6.6769 2.3022 9.4534.0934l11.7752-9.3674 30.9081 38.8562c-.736.323-1.55.502-2.406.502zm93.761-4.317c.155-.534.239-1.099.239-1.683v-58c0-.8557-.179-1.6696-.502-2.4061l-30.0872 23.9351z" fill="#fff" fill-rule="evenodd"/></svg>