<svg fill="none" height="150" viewBox="0 0 150 150" width="150" xmlns="http://www.w3.org/2000/svg"><path clip-rule="evenodd" d="m75.0414 26c-27.6716 0-50.0414 22.5347-50.0414 50.4132 0 22.2848 14.3331 41.1488 34.2169 47.8248 2.486.502 3.3966-1.085 3.3966-2.419 0-1.169-.082-5.175-.082-9.349-13.9203 3.005-16.819-6.01-16.819-6.01-2.2371-5.842-5.5518-7.3441-5.5518-7.3441-4.5561-3.0883.3319-3.0883.3319-3.0883 5.0539.3339 7.7058 5.1744 7.7058 5.1744 4.4732 7.679 11.6812 5.509 14.581 4.173.4138-3.255 1.7403-5.5083 3.1487-6.76-11.1024-1.1687-22.7836-5.5087-22.7836-24.8732 0-5.5087 1.9872-10.0156 5.1359-13.5208-.4968-1.2517-2.2371-6.4275.4978-13.3549 0 0 4.2253-1.3357 13.7523 5.1748 4.0789-1.1035 8.2854-1.6649 12.5109-1.6696 4.2252 0 8.5324.5849 12.5098 1.6696 9.5281-6.5105 13.7538-5.1748 13.7538-5.1748 2.734 6.9274.993 12.1032.496 13.3549 3.232 3.5052 5.137 8.0121 5.137 13.5208 0 19.3645-11.681 23.6205-22.8664 24.8732 1.8233 1.586 3.3966 4.59 3.3966 9.348 0 6.76-.0819 12.186-.0819 13.855 0 1.335.9116 2.922 3.3966 2.421 19.8841-6.678 34.2171-25.541 34.2171-47.8258.082-27.8785-22.37-50.4132-49.9586-50.4132z" fill="#fff" fill-rule="evenodd"/></svg>