<svg fill="none" height="150" viewBox="0 0 150 150" width="150" xmlns="http://www.w3.org/2000/svg"><path d="m122.911 50.9307c-1.15-4.3028-4.538-7.6909-8.841-8.8409-7.799-2.0898-39.0699-2.0898-39.0699-2.0898s-31.271 0-39.0702 2.0898c-4.302 1.15-7.6908 4.5381-8.8406 8.8409-2.0893 7.7984-2.0893 24.07-2.0893 24.07s0 16.2711 2.0893 24.0688c1.1498 4.3025 4.5386 7.6915 8.8406 8.8415 7.7992 2.089 39.0702 2.089 39.0702 2.089s31.2709 0 39.0699-2.089c4.303-1.15 7.691-4.539 8.841-8.8415 2.089-7.7977 2.089-24.0688 2.089-24.0688s0-16.2716-2.089-24.07zm-57.9115 39.0702v-30.0007l25.9803 15.0005z" fill="#fff"/></svg>