<svg fill="none" height="150" viewBox="0 0 150 150" width="150" xmlns="http://www.w3.org/2000/svg"><path d="m109.71 43.3473c-6.571-3.0079-13.5066-5.1419-20.6312-6.3473-.975 1.7429-1.8571 3.536-2.6428 5.372-7.5891-1.1436-15.3068-1.1436-22.896 0-.786-1.8358-1.6682-3.6289-2.6427-5.372-7.1293 1.2156-14.0698 3.3546-20.6465 6.3631-13.0564 19.3172-16.5958 38.1547-14.8261 56.7249 7.6461 5.649 16.2044 9.946 25.3027 12.702 2.0487-2.755 3.8615-5.678 5.4192-8.738-2.9586-1.105-5.8143-2.468-8.5339-4.0743.7158-.5191 1.4158-1.054 2.0922-1.5731 7.9133 3.7214 16.5503 5.6514 25.2949 5.6514 8.7447 0 17.3816-1.93 25.2952-5.6514.684.5585 1.384 1.0933 2.092 1.5731-2.7249 1.6083-5.5858 2.9743-8.5497 4.0823 1.5558 3.058 3.3687 5.979 5.4192 8.73 9.1065-2.745 17.6705-7.04 25.3185-12.694 2.076-21.5356-3.547-40.2-14.865-56.7487zm-51.3218 45.3201c-4.9315 0-9.0058-4.4754-9.0058-9.9812 0-5.5057 3.9327-10.0204 8.9901-10.0204s9.1002 4.5147 9.0137 10.0204c-.0865 5.5058-3.972 9.9812-8.998 9.9812zm33.2232 0c-4.9394 0-8.9979-4.4754-8.9979-9.9812 0-5.5057 3.9326-10.0204 8.9979-10.0204s9.0766 4.5147 8.9896 10.0204c-.086 5.5058-3.9637 9.9812-8.9896 9.9812z" fill="#fff"/></svg>